<svg width="524" height="69" viewBox="0 0 524 69" fill="none" xmlns="http://www.w3.org/2000/svg">
<path d="M259.397 20.6395C257.536 19.3574 255.403 18.4016 252.989 17.7955C250.599 17.1816 248.092 16.8785 245.475 16.8785C241.715 16.8785 238.398 17.4536 235.54 18.5958C232.698 19.7148 230.378 21.3311 228.579 23.4293C226.78 25.5118 225.573 27.9829 224.958 30.8348L237.043 31.8139C237.494 30.2597 238.413 28.9776 239.799 27.9596C241.193 26.9183 243.062 26.3977 245.413 26.3977C247.64 26.3977 249.361 26.9261 250.568 27.9907C251.798 29.0553 252.405 30.555 252.405 32.49V32.6765C252.405 33.6789 252.024 34.4327 251.269 34.9455C250.513 35.4584 249.298 35.8469 247.617 36.1111C245.943 36.3597 243.731 36.6241 240.99 36.9038C238.662 37.1289 236.428 37.5175 234.302 38.0695C232.192 38.6211 230.315 39.4372 228.657 40.5172C226.998 41.5972 225.69 43.027 224.733 44.8064C223.775 46.5783 223.292 48.7776 223.292 51.3883C223.292 54.489 223.97 57.0844 225.316 59.1668C226.687 61.2263 228.548 62.7882 230.899 63.8526C233.251 64.8942 235.929 65.4146 238.935 65.4146C241.263 65.4146 243.319 65.1117 245.102 64.4976C246.877 63.8682 248.403 62.9977 249.672 61.8945C250.941 60.7676 251.954 59.4777 252.709 58.009H253.075V64.5288H265.471V32.8163C265.471 30.0189 264.926 27.6255 263.843 25.6206C262.761 23.6002 261.274 21.9451 259.397 20.6629V20.6395ZM252.499 47.6972C252.499 49.3524 252.078 50.829 251.245 52.1342C250.404 53.4398 249.252 54.4813 247.78 55.2581C246.309 56.012 244.611 56.3926 242.688 56.3926C240.764 56.3926 239.028 55.9343 237.72 55.0174C236.428 54.0771 235.789 52.7251 235.789 50.9456C235.789 49.7178 236.109 48.6999 236.739 47.8838C237.37 47.0446 238.265 46.384 239.41 45.8945C240.555 45.4049 241.894 45.0476 243.427 44.8221C244.144 44.7211 244.938 44.6045 245.818 44.488C246.698 44.3481 247.578 44.1927 248.457 44.0296C249.337 43.843 250.124 43.6487 250.817 43.4468C251.533 43.2213 252.094 42.9805 252.506 42.7085V47.6972H252.499Z" fill="#0A0A0A"/>
<path d="M287.858 28.6903C289.368 27.5868 291.144 27.0351 293.168 27.0351C295.558 27.0351 297.489 27.7578 298.969 29.2109C300.464 30.6407 301.383 32.529 301.733 34.8758H314.067C313.88 31.2469 312.891 28.0764 311.092 25.3877C309.294 22.6913 306.849 20.6009 303.765 19.1089C300.674 17.617 297.077 16.871 292.966 16.871C288.2 16.871 284.089 17.9045 280.632 19.9637C277.175 22.0074 274.512 24.8515 272.627 28.5038C270.767 32.1327 269.832 36.3601 269.832 41.1777C269.832 45.9958 270.751 50.1376 272.597 53.7899C274.457 57.4421 277.112 60.3016 280.57 62.3611C284.042 64.4046 288.192 65.4225 293.02 65.4225C297.209 65.4225 300.846 64.661 303.913 63.1303C306.981 61.5996 309.379 59.478 311.124 56.7659C312.883 54.0306 313.864 50.8679 314.067 47.2781H301.733C301.484 48.933 300.962 50.3475 300.168 51.5365C299.389 52.7018 298.401 53.5879 297.194 54.2017C296.01 54.8154 294.671 55.1187 293.176 55.1187C291.151 55.1187 289.384 54.567 287.866 53.4634C286.355 52.3601 285.179 50.7593 284.338 48.661C283.521 46.5554 283.108 44.0064 283.108 41.0071C283.108 38.0074 283.528 35.5285 284.362 33.446C285.203 31.3634 286.363 29.786 287.858 28.698V28.6903Z" fill="#0A0A0A"/>
<path d="M218.279 54.497C217.664 54.5979 217.049 54.6524 216.441 54.6524C215.561 54.6524 214.783 54.5202 214.113 54.2558C213.459 53.9918 212.945 53.5332 212.579 52.8806C212.213 52.2044 212.027 51.2721 212.027 50.0675V27.2915H220.887V17.4926H212.027V6.22498H198.961V17.4926H192.521V27.2915H198.961V51.7849C198.938 54.8619 199.584 57.4186 200.892 59.4392C202.2 61.4594 204.03 62.9513 206.381 63.9071C208.756 64.863 211.512 65.2828 214.666 65.1582C216.363 65.0961 217.804 64.9251 218.987 64.6378C220.171 64.3734 221.098 64.1403 221.752 63.9307L219.696 54.225C219.369 54.2871 218.902 54.3804 218.287 54.497H218.279Z" fill="#0A0A0A"/>
<path d="M185.684 34.3866C184.01 32.8946 182.025 31.6435 179.735 30.6178C177.446 29.5998 174.931 28.7839 172.191 28.17L166.545 26.8256C165.175 26.5226 163.89 26.1496 162.683 25.7222C161.476 25.2715 160.417 24.7508 159.491 24.1603C158.572 23.5464 157.848 22.8237 157.311 21.9845C156.797 21.1452 156.563 20.1661 156.602 19.0471C156.602 17.7028 156.991 16.4983 157.77 15.4337C158.564 14.3691 159.709 13.5454 161.204 12.9549C162.699 12.341 164.529 12.0379 166.693 12.0379C169.886 12.0379 172.409 12.7217 174.269 14.0894C176.13 15.4571 177.182 17.3764 177.431 19.8475H190.162C190.099 16.1098 189.095 12.8305 187.156 9.99421C185.217 7.15788 182.492 4.94323 178.996 3.35022C175.523 1.75722 171.451 0.9646 166.787 0.9646C162.123 0.9646 158.113 1.75722 154.515 3.35022C150.918 4.94323 148.084 7.15788 146.02 9.99421C143.972 12.8305 142.96 16.1486 142.984 19.9408C142.96 24.5721 144.487 28.2555 147.554 30.9908C150.622 33.7261 154.804 35.7387 160.098 37.021L166.943 38.7384C169.232 39.29 171.163 39.9038 172.743 40.572C174.34 41.2482 175.546 42.0642 176.364 43.02C177.205 43.9758 177.618 45.1645 177.618 46.571C177.618 48.0788 177.158 49.4152 176.24 50.581C175.321 51.7463 174.02 52.6557 172.346 53.3083C170.688 53.9612 168.733 54.2873 166.491 54.2873C164.248 54.2873 162.146 53.9376 160.324 53.2462C158.525 52.5311 157.085 51.4823 156.003 50.0914C154.944 48.6849 154.336 46.9287 154.196 44.8227H141.341C141.442 49.3299 142.54 53.122 144.627 56.1758C146.737 59.2143 149.657 61.5142 153.402 63.0605C157.163 64.6148 161.578 65.384 166.654 65.384C171.731 65.384 176.13 64.6225 179.751 63.0917C183.387 61.5374 186.175 59.3694 188.09 56.572C190.029 53.7589 191.018 50.4332 191.033 46.5946C191.01 43.9835 190.535 41.6676 189.593 39.6474C188.674 37.6271 187.374 35.8708 185.7 34.3788L185.684 34.3866Z" fill="#0A0A0A"/>
<path d="M464.336 19.0157C461.906 17.5859 459.049 16.871 455.778 16.871C452.281 16.871 449.308 17.6791 446.855 19.2877C444.403 20.8807 442.649 23.041 441.608 25.7763H441.055V17.4771H428.603V64.4979H441.67V37.3159C441.692 35.2954 442.066 33.5703 442.805 32.1405C443.562 30.6951 444.603 29.5917 445.935 28.8379C447.281 28.0842 448.838 27.7034 450.6 27.7034C453.216 27.7034 455.272 28.5193 456.768 30.1512C458.263 31.7597 458.995 34.0055 458.976 36.8885V64.4979H472.044V34.5572C472.044 30.905 471.367 27.7578 470.02 25.1313C468.67 22.4814 466.778 20.4378 464.344 19.0079L464.336 19.0157Z" fill="#0A0A0A"/>
<path d="M362.397 17.4845H347.401L332.31 35.3339H331.602V1.81091H318.536V64.5052H331.602V49.5776L335.145 45.5447L347.984 64.5052H363.285L344.924 37.8516L362.397 17.4845Z" fill="#0A0A0A"/>
<path d="M521.543 44.3328V40.7506C521.543 36.7486 520.983 33.2597 519.851 30.2834C518.731 27.2839 517.151 24.7973 515.128 22.8157C513.127 20.8342 510.772 19.3577 508.072 18.3786C505.394 17.3762 502.497 16.8789 499.39 16.8789C494.772 16.8789 490.74 17.8969 487.305 19.9406C483.888 21.9843 481.239 24.8284 479.365 28.4806C477.48 32.1329 476.545 36.3757 476.545 41.2169C476.545 46.0582 477.487 50.472 479.365 54.1087C481.246 57.7221 483.925 60.5195 487.4 62.4932C490.897 64.4514 495.071 65.4305 499.91 65.4305C503.797 65.4305 507.224 64.84 510.19 63.659C513.181 62.4544 515.608 60.7835 517.493 58.639C519.393 56.4786 520.656 53.9452 521.263 51.0469L509.178 50.2541C508.727 51.4355 508.072 52.4378 507.217 53.2538C506.358 54.0698 505.325 54.6835 504.117 55.0877C502.909 55.4995 501.577 55.7015 500.129 55.7015C497.942 55.7015 496.049 55.2432 494.452 54.3262C492.858 53.4092 491.621 52.1037 490.74 50.4095C489.881 48.7158 489.448 46.7031 489.448 44.3797V44.3484H521.536L521.543 44.3328ZM494.335 27.9833C495.871 27.0664 497.629 26.6079 499.615 26.6079C501.602 26.6079 503.182 27.0275 504.615 27.8667C506.064 28.6827 507.199 29.8172 508.018 31.2625C508.836 32.7079 509.248 34.3786 509.248 36.2514H489.492C489.572 34.5651 489.991 33.0187 490.788 31.6278C491.643 30.0969 492.833 28.8847 494.343 27.9833H494.335Z" fill="#0A0A0A"/>
<path d="M408.444 4.75635C404.008 2.2231 399.016 0.964233 393.481 0.964233C387.942 0.964233 382.892 2.23087 378.452 4.75635C374.013 7.26632 370.508 10.9186 367.932 15.7131C365.356 20.5077 364.071 26.328 364.071 33.1585C364.071 39.9888 365.356 45.7783 367.932 50.5727C370.508 55.3671 374.013 59.035 378.452 61.5604C382.892 64.0938 387.899 65.3528 393.481 65.3528C399.063 65.3528 404.015 64.1014 408.444 61.5916C412.898 59.0582 416.417 55.3983 418.997 50.6039C421.595 45.8091 422.89 39.9888 422.89 33.1585C422.89 26.328 421.588 20.5077 418.997 15.7131C416.417 10.9186 412.898 7.26632 408.444 4.75635ZM407.432 44.3718C406.126 47.4099 404.27 49.7178 401.883 51.2877C399.492 52.8573 396.687 53.6421 393.481 53.6421C390.271 53.6421 387.469 52.8573 385.079 51.2877C382.688 49.7178 380.828 47.4099 379.497 44.3718C378.187 41.3332 377.532 37.5956 377.532 33.1662C377.532 28.7369 378.187 25.0069 379.497 21.9608C380.828 18.9225 382.688 16.6145 385.079 15.0448C387.469 13.4752 390.271 12.6903 393.481 12.6903C396.687 12.6903 399.492 13.4752 401.883 15.0448C404.27 16.6145 406.126 18.9225 407.432 21.9608C408.764 24.9992 409.426 28.7369 409.426 33.1662C409.426 37.5956 408.764 41.3256 407.432 44.3718Z" fill="#0A0A0A"/>
<path d="M74.883 0.785522H0.149414V0.956479L0.149416 43.8121H37.6408V22.3027L74.883 0.785522Z" fill="#05C168"/>
<path d="M37.6416 22.3027H75.1331V0.785522H57.2246C46.4091 0.785522 37.6416 5.83651 37.6416 12.0687V22.3027Z" fill="url(#paint0_linear_70_490)"/>
<path d="M75.1309 22.3029V43.8121L37.8887 65.3296H75.1309H112.622V22.3029H75.1309Z" fill="#05C168"/>
<path d="M75.1331 43.8121H37.6416V65.3292H55.5504C66.3659 65.3292 75.1331 60.2784 75.1331 54.0463V43.8121Z" fill="url(#paint1_linear_70_490)"/>
<defs>
<linearGradient id="paint0_linear_70_490" x1="75.1331" y1="11.5431" x2="37.6416" y2="11.5431" gradientUnits="userSpaceOnUse">
<stop stop-color="#05C168"/>
<stop offset="0.6875" stop-color="#04934F"/>
<stop offset="0.838542" stop-color="#048C4C"/>
<stop offset="1" stop-color="#038044"/>
</linearGradient>
<linearGradient id="paint1_linear_70_490" x1="37.5353" y1="54.5696" x2="75.2921" y2="54.5696" gradientUnits="userSpaceOnUse">
<stop stop-color="#05C168"/>
<stop offset="0.6875" stop-color="#04934F"/>
<stop offset="0.838542" stop-color="#048C4C"/>
<stop offset="1" stop-color="#038044"/>
</linearGradient>
</defs>
</svg>
