<svg width="212" height="28" viewBox="0 0 212 28" fill="none" xmlns="http://www.w3.org/2000/svg">
<mask id="mask0_320_18306" style="mask-type:luminance" maskUnits="userSpaceOnUse" x="0" y="5" width="212" height="18">
<path d="M212 5.18311H0V22.8167H212V5.18311Z" fill="white"/>
</mask>
<g mask="url(#mask0_320_18306)">
<mask id="mask1_320_18306" style="mask-type:luminance" maskUnits="userSpaceOnUse" x="0" y="5" width="140" height="18">
<path d="M140 5.18311H0V22.8167H140V5.18311Z" fill="white"/>
</mask>
<g mask="url(#mask1_320_18306)">
<path d="M69.3047 10.6977C68.8075 10.3552 68.2375 10.0998 67.5926 9.93785C66.954 9.77383 66.2841 9.69287 65.5851 9.69287C64.5803 9.69287 63.6941 9.8465 62.9306 10.1517C62.1712 10.4507 61.5513 10.8825 61.0707 11.4431C60.5902 11.9995 60.2677 12.6597 60.1034 13.4216L63.332 13.6832C63.4527 13.268 63.6982 12.9254 64.0685 12.6535C64.4409 12.3753 64.9402 12.2362 65.5684 12.2362C66.1634 12.2362 66.6231 12.3773 66.9456 12.6618C67.2743 12.9462 67.4366 13.3469 67.4366 13.8639V13.9137C67.4366 14.1815 67.3347 14.3829 67.1328 14.5199C66.931 14.657 66.6065 14.7608 66.1571 14.8313C65.7099 14.8978 65.1191 14.9684 64.3868 15.0431C63.7648 15.1033 63.1677 15.2071 62.5998 15.3546C62.0361 15.502 61.5347 15.72 61.0916 16.0085C60.6484 16.2971 60.2989 16.6791 60.0431 17.1545C59.7872 17.6279 59.6582 18.2155 59.6582 18.913C59.6582 19.7415 59.8392 20.4349 60.1991 20.9913C60.5652 21.5415 61.0624 21.9588 61.6907 22.2432C62.319 22.5215 63.0345 22.6605 63.8376 22.6605C64.4596 22.6605 65.0088 22.5796 65.4852 22.4155C65.9596 22.2474 66.3673 22.0148 66.7063 21.72C67.0454 21.4189 67.3159 21.0743 67.5177 20.6819H67.6155V22.4239H70.9273V13.9511C70.9273 13.2036 70.7818 12.5642 70.4925 12.0285C70.2034 11.4887 69.8061 11.0465 69.3047 10.7039V10.6977ZM67.4615 17.9269C67.4615 18.3691 67.3492 18.7636 67.1266 19.1123C66.9019 19.4611 66.594 19.7394 66.2009 19.947C65.8077 20.1484 65.3542 20.2501 64.8403 20.2501C64.3264 20.2501 63.8626 20.1276 63.5131 19.8826C63.1677 19.6314 62.9971 19.2702 62.9971 18.7948C62.9971 18.4667 63.0825 18.1947 63.2509 17.9767C63.4194 17.7525 63.6587 17.576 63.9645 17.4452C64.2703 17.3144 64.6281 17.2189 65.0379 17.1587C65.2293 17.1317 65.4416 17.1006 65.6766 17.0694C65.9117 17.0321 66.1467 16.9905 66.3818 16.947C66.6169 16.8971 66.827 16.8452 67.0122 16.7912C67.2035 16.731 67.3533 16.6667 67.4636 16.594V17.9269H67.4615Z" fill="#0A0A0A"/>
<path d="M76.9078 12.8483C77.3114 12.5534 77.7857 12.406 78.3266 12.406C78.9652 12.406 79.4812 12.5991 79.8765 12.9874C80.2759 13.3694 80.5214 13.8739 80.615 14.5009H83.9102C83.8603 13.5313 83.5961 12.6842 83.1155 11.9659C82.635 11.2455 81.9817 10.687 81.158 10.2884C80.3321 9.88975 79.3709 9.69043 78.2725 9.69043C76.9994 9.69043 75.901 9.96656 74.9773 10.5167C74.0536 11.0628 73.3421 11.8226 72.8387 12.7984C72.3415 13.768 72.0918 14.8974 72.0918 16.1846C72.0918 17.4719 72.3373 18.5784 72.8304 19.5542C73.3276 20.53 74.0369 21.294 74.9606 21.8443C75.8884 22.3902 76.9972 22.6622 78.2871 22.6622C79.4063 22.6622 80.3779 22.4587 81.1974 22.0498C82.0171 21.6408 82.6578 21.074 83.1239 20.3494C83.594 19.6186 83.8562 18.7736 83.9102 17.8145H80.615C80.5484 18.2566 80.409 18.6345 80.1968 18.9522C79.9888 19.2636 79.7246 19.5003 79.4021 19.6643C79.086 19.8283 78.7281 19.9093 78.3287 19.9093C77.7878 19.9093 77.3156 19.7619 76.9099 19.467C76.5063 19.1723 76.1921 18.7446 75.9675 18.1839C75.7491 17.6214 75.6389 16.9403 75.6389 16.139C75.6389 15.3376 75.7511 14.6753 75.9738 14.1189C76.1985 13.5625 76.5084 13.141 76.9078 12.8503V12.8483Z" fill="#0A0A0A"/>
<path d="M58.3193 19.7433C58.155 19.7703 57.9906 19.7848 57.8283 19.7848C57.5932 19.7848 57.3852 19.7495 57.2063 19.6789C57.0316 19.6083 56.8943 19.4858 56.7965 19.3114C56.6987 19.1308 56.6488 18.8817 56.6488 18.5598V12.4746H59.0162V9.85661H56.6488V6.84619H53.1579V9.85661H51.4375V12.4746H53.1579V19.0187C53.1517 19.8408 53.3244 20.5239 53.6739 21.0637C54.0234 21.6035 54.5122 22.0021 55.1405 22.2574C55.7751 22.5128 56.5114 22.625 57.354 22.5917C57.8075 22.5751 58.1924 22.5294 58.5086 22.4527C58.8248 22.382 59.0724 22.3197 59.2471 22.2638L58.6979 19.6706C58.6106 19.6872 58.4857 19.7121 58.3213 19.7433H58.3193Z" fill="#0A0A0A"/>
<path d="M49.6112 14.3705C49.1639 13.9718 48.6334 13.6376 48.0218 13.3635C47.4102 13.0915 46.7383 12.8736 46.006 12.7095L44.4977 12.3504C44.1315 12.2694 43.7883 12.1697 43.4659 12.0555C43.1434 11.9351 42.8604 11.796 42.6129 11.6382C42.3674 11.4742 42.174 11.2811 42.0305 11.0569C41.8931 10.8327 41.8307 10.5711 41.8411 10.2721C41.8411 9.91296 41.9451 9.59116 42.1532 9.30672C42.3654 9.02229 42.6712 8.80221 43.0706 8.64443C43.47 8.48041 43.9589 8.39944 44.5372 8.39944C45.3902 8.39944 46.0642 8.58214 46.5614 8.94755C47.0586 9.31295 47.3395 9.82576 47.406 10.486H50.8074C50.7907 9.48735 50.5223 8.61121 50.0043 7.85341C49.4863 7.09561 48.7582 6.50392 47.8241 6.0783C46.8963 5.65269 45.8083 5.44092 44.5622 5.44092C43.316 5.44092 42.2447 5.65269 41.2836 6.0783C40.3225 6.50392 39.5652 7.09561 39.0139 7.85341C38.4668 8.61121 38.1964 9.49773 38.2026 10.5109C38.1964 11.7483 38.6042 12.7324 39.4237 13.4632C40.2434 14.194 41.3606 14.7317 42.7752 15.0743L44.6038 15.5331C45.2155 15.6805 45.7313 15.8445 46.1537 16.023C46.5802 16.2037 46.9026 16.4217 47.121 16.6771C47.3457 16.9325 47.4559 17.25 47.4559 17.6258C47.4559 18.0287 47.3332 18.3857 47.0878 18.6972C46.8423 19.0085 46.4948 19.2515 46.0476 19.4259C45.6044 19.6003 45.0823 19.6874 44.4832 19.6874C43.884 19.6874 43.3224 19.594 42.8356 19.4093C42.355 19.2182 41.9701 18.938 41.6809 18.5664C41.398 18.1906 41.2358 17.7214 41.1983 17.1587H37.7637C37.7907 18.3629 38.084 19.3761 38.6416 20.192C39.2054 21.0038 39.9855 21.6183 40.9861 22.0314C41.9909 22.4467 43.1705 22.6522 44.5268 22.6522C45.8832 22.6522 47.0586 22.4487 48.026 22.0398C48.9975 21.6245 49.7422 21.0452 50.254 20.2978C50.772 19.5463 51.0362 18.6577 51.0403 17.6321C51.0341 16.9345 50.9072 16.3158 50.6555 15.776C50.41 15.2362 50.0626 14.767 49.6154 14.3684L49.6112 14.3705Z" fill="#0A0A0A"/>
<path d="M124.059 10.2635C123.409 9.88144 122.646 9.69043 121.772 9.69043C120.838 9.69043 120.044 9.90636 119.388 10.3361C118.733 10.7617 118.265 11.3389 117.986 12.0697H117.839V9.85237H114.512V22.4152H118.003V15.1528C118.009 14.613 118.109 14.1521 118.306 13.7701C118.509 13.3839 118.787 13.0891 119.142 12.8877C119.502 12.6863 119.918 12.5846 120.389 12.5846C121.088 12.5846 121.637 12.8026 122.037 13.2386C122.436 13.6683 122.632 14.2684 122.627 15.0386V22.4152H126.118V14.4158C126.118 13.44 125.937 12.5991 125.578 11.8974C125.217 11.1894 124.711 10.6434 124.061 10.2614L124.059 10.2635Z" fill="#0A0A0A"/>
<path d="M96.8241 9.8546H92.8173L88.7856 14.6235H88.5963V5.66699H85.1055V22.4174H88.5963V18.4291L89.5429 17.3516L92.9733 22.4174H97.0612L92.1557 15.2962L96.8241 9.8546Z" fill="#0A0A0A"/>
<path d="M139.343 17.0279V16.0708C139.343 15.0016 139.193 14.0694 138.891 13.2742C138.591 12.4728 138.169 11.8085 137.629 11.279C137.094 10.7496 136.465 10.3552 135.744 10.0936C135.028 9.82573 134.254 9.69287 133.424 9.69287C132.19 9.69287 131.113 9.96484 130.195 10.5109C129.282 11.0569 128.574 11.8168 128.074 12.7926C127.57 13.7684 127.32 14.9019 127.32 16.1954C127.32 17.4889 127.572 18.6681 128.074 19.6397C128.576 20.6052 129.292 21.3526 130.22 21.8799C131.155 22.4031 132.27 22.6647 133.563 22.6647C134.601 22.6647 135.517 22.5069 136.309 22.1914C137.109 21.8695 137.757 21.4231 138.261 20.8502C138.768 20.2729 139.106 19.5961 139.268 18.8217L136.039 18.6099C135.919 18.9255 135.744 19.1933 135.515 19.4113C135.286 19.6294 135.01 19.7933 134.687 19.9013C134.364 20.0114 134.008 20.0653 133.621 20.0653C133.037 20.0653 132.531 19.9429 132.105 19.6979C131.679 19.4529 131.348 19.1041 131.113 18.6514C130.884 18.1989 130.768 17.6612 130.768 17.0404V17.032H139.341L139.343 17.0279ZM132.074 12.6597C132.484 12.4147 132.953 12.2922 133.484 12.2922C134.015 12.2922 134.437 12.4043 134.82 12.6285C135.207 12.8465 135.51 13.1497 135.729 13.5358C135.948 13.922 136.058 14.3684 136.058 14.8687H130.779C130.801 14.4182 130.913 14.005 131.126 13.6334C131.354 13.2244 131.671 12.9005 132.074 12.6597Z" fill="#0A0A0A"/>
<path d="M109.127 6.45408C107.942 5.77726 106.608 5.44092 105.129 5.44092C103.649 5.44092 102.3 5.77933 101.114 6.45408C99.9276 7.12469 98.9913 8.10048 98.303 9.38146C97.6147 10.6624 97.2715 12.2175 97.2715 14.0424C97.2715 15.8673 97.6147 17.4141 98.303 18.6951C98.9913 19.976 99.9276 20.956 101.114 21.6307C102.3 22.3076 103.638 22.644 105.129 22.644C106.62 22.644 107.944 22.3096 109.127 21.6391C110.317 20.9622 111.257 19.9844 111.946 18.7034C112.64 17.4224 112.986 15.8673 112.986 14.0424C112.986 12.2175 112.638 10.6624 111.946 9.38146C111.257 8.10048 110.317 7.12469 109.127 6.45408ZM108.856 17.0383C108.507 17.8501 108.012 18.4667 107.374 18.8861C106.735 19.3055 105.986 19.5151 105.129 19.5151C104.271 19.5151 103.523 19.3055 102.884 18.8861C102.245 18.4667 101.749 17.8501 101.393 17.0383C101.043 16.2265 100.868 15.2279 100.868 14.0445C100.868 12.8611 101.043 11.8645 101.393 11.0507C101.749 10.2389 102.245 9.62229 102.884 9.20291C103.523 8.78354 104.271 8.57384 105.129 8.57384C105.986 8.57384 106.735 8.78354 107.374 9.20291C108.012 9.62229 108.507 10.2389 108.856 11.0507C109.212 11.8625 109.389 12.8611 109.389 14.0445C109.389 15.2279 109.212 16.2245 108.856 17.0383Z" fill="#0A0A0A"/>
<path d="M20.0061 5.39307H0.0390625V5.43874L0.039063 16.8887H10.0559V11.1419L20.0061 5.39307Z" fill="#05C168"/>
<path d="M10.0566 11.1419H20.0734V5.39307H15.2888C12.3991 5.39307 10.0566 6.74257 10.0566 8.40765V11.1419Z" fill="url(#paint0_linear_320_18306)"/>
<path d="M20.0733 11.1421V16.8888L10.123 22.6378H20.0733H30.0901V11.1421H20.0733Z" fill="#05C168"/>
<path d="M20.0734 16.8887H10.0566V22.6375H14.8414C17.7311 22.6375 20.0734 21.2881 20.0734 19.623V16.8887Z" fill="url(#paint1_linear_320_18306)"/>
</g>
</g>
<defs>
<linearGradient id="paint0_linear_320_18306" x1="20.0734" y1="8.26722" x2="10.0566" y2="8.26722" gradientUnits="userSpaceOnUse">
<stop stop-color="#05C168"/>
<stop offset="0.6875" stop-color="#04934F"/>
<stop offset="0.838542" stop-color="#048C4C"/>
<stop offset="1" stop-color="#038044"/>
</linearGradient>
<linearGradient id="paint1_linear_320_18306" x1="10.0283" y1="19.7628" x2="20.1159" y2="19.7628" gradientUnits="userSpaceOnUse">
<stop stop-color="#05C168"/>
<stop offset="0.6875" stop-color="#04934F"/>
<stop offset="0.838542" stop-color="#048C4C"/>
<stop offset="1" stop-color="#038044"/>
</linearGradient>
</defs>
</svg>
