<svg width="100" height="18" viewBox="0 0 100 18" fill="none" xmlns="http://www.w3.org/2000/svg">
<g clip-path="url(#clip0_128_763)">
<path d="M20.1826 5.13359C16.5499 5.13359 13.7114 7.8913 13.7114 11.5831C13.7114 15.2748 16.4782 18.0089 20.1826 18.0089C23.8871 18.0089 26.702 15.2276 26.702 11.5595C26.702 7.9149 23.9352 5.13359 20.1826 5.13359ZM20.2071 15.3484C18.1384 15.3484 16.6225 13.7417 16.6225 11.584C16.6225 9.40178 18.1139 7.79599 20.1826 7.79599C22.2759 7.79599 23.7909 9.42629 23.7909 11.584C23.7909 13.7417 22.2759 15.3484 20.2071 15.3484ZM27.4954 7.93941H29.3V17.7702H32.1866V5.37324H27.4954V7.93941ZM6.44675 7.79508C7.96267 7.79508 9.16543 8.73005 9.62202 10.1207H12.6775C12.1237 7.14786 9.67013 5.13359 6.47126 5.13359C2.8385 5.13359 0 7.8913 0 11.584C0 15.2767 2.76678 18.0099 6.47126 18.0099C9.59842 18.0099 12.1001 15.9956 12.6539 12.9982H9.62202C9.18903 14.3889 7.98627 15.3484 6.47035 15.3484C4.37711 15.3484 2.91021 13.7417 2.91021 11.584C2.91111 9.40178 4.35442 7.79508 6.44675 7.79508ZM82.3427 10.3849L80.2258 10.0735C79.2155 9.93008 78.4939 9.59422 78.4939 8.80267C78.4939 7.93941 79.4325 7.50824 80.7069 7.50824C82.1021 7.50824 82.9926 8.10734 83.1851 9.09042H85.9755C85.6623 6.59687 83.7379 5.1345 80.7796 5.1345C77.7241 5.1345 75.7035 6.69309 75.7035 8.89889C75.7035 11.0085 77.027 12.2321 79.6966 12.6152L81.8135 12.9265C82.8483 13.0699 83.4256 13.4784 83.4256 14.2455C83.4256 15.2285 82.4153 15.6361 81.0201 15.6361C79.3118 15.6361 78.3495 14.9408 78.2052 13.886H75.3667C75.6318 16.3078 77.5317 18.0099 80.9956 18.0099C84.1473 18.0099 86.2396 16.5711 86.2396 14.1011C86.2396 11.8953 84.7246 10.7443 82.3427 10.3849ZM30.7433 0.266306C29.6848 0.266306 28.8906 1.03334 28.8906 2.08813C28.8906 3.14293 29.6839 3.90996 30.7433 3.90996C31.8017 3.90996 32.5959 3.14293 32.5959 2.08813C32.5959 1.03334 31.8017 0.266306 30.7433 0.266306ZM73.1055 9.61782C73.1055 6.93273 71.4698 5.1345 68.0059 5.1345C64.7344 5.1345 62.9062 6.78931 62.5449 9.33097H65.4079C65.5523 8.34789 66.322 7.53274 67.9578 7.53274C69.4256 7.53274 70.1472 8.17996 70.1472 8.97151C70.1472 10.0027 68.8238 10.2659 67.188 10.4339C64.9749 10.6735 62.2327 11.4406 62.2327 14.3181C62.2327 16.5484 63.8929 17.9863 66.539 17.9863C68.6077 17.9863 69.9067 17.123 70.5566 15.7559C70.6528 16.9787 71.5669 17.7702 72.8423 17.7702H74.5262V15.2049H73.1065V9.61782H73.1055ZM70.2671 12.735C70.2671 14.3898 68.8238 15.6125 67.0673 15.6125C65.9844 15.6125 65.0703 15.1568 65.0703 14.1983C65.0703 12.9755 66.5381 12.6397 67.8851 12.4963C69.1841 12.3764 69.9058 12.0887 70.2671 11.5368V12.735ZM54.9435 5.13359C53.3314 5.13359 51.9843 5.80532 51.0221 6.93182V0.146484H48.1355V17.7702H50.974V16.1399C51.9362 17.3145 53.3078 18.0099 54.9435 18.0099C58.4075 18.0099 61.0299 15.2767 61.0299 11.584C61.0299 7.8913 58.3594 5.13359 54.9435 5.13359ZM54.5105 15.3484C52.4418 15.3484 50.9259 13.7417 50.9259 11.584C50.9259 9.42629 52.4654 7.79599 54.5341 7.79599C56.6274 7.79599 58.0943 9.40268 58.0943 11.584C58.0943 13.7417 56.5793 15.3484 54.5105 15.3484ZM41.2313 5.13359C39.355 5.13359 38.1277 5.90063 37.406 6.97993V5.37324H34.543V17.7693H37.4296V11.0321C37.4296 9.13762 38.6324 7.79508 40.4125 7.79508C42.0727 7.79508 43.1066 8.96969 43.1066 10.6726V17.7702H45.9932V10.4575C45.9942 7.3394 44.3829 5.13359 41.2313 5.13359ZM100 11.1764C100 7.62806 97.4021 5.1345 93.9136 5.1345C90.2091 5.1345 87.4905 7.91581 87.4905 11.584C87.4905 15.4446 90.4016 18.0099 93.9617 18.0099C96.9691 18.0099 99.3265 16.2352 99.9274 13.7181H96.92C96.4871 14.821 95.4286 15.4446 94.0089 15.4446C92.1562 15.4446 90.761 14.2936 90.4488 12.2793H99.9991V11.1764H100ZM90.6176 10.2169C91.0751 8.49041 92.3741 7.65166 93.8655 7.65166C95.5013 7.65166 96.7521 8.58663 97.0408 10.2169H90.6176Z" fill="#0052FF"/>
</g>
<defs>
<clipPath id="clip0_128_763">
<rect width="100" height="17.8634" fill="white" transform="translate(0 0.146484)"/>
</clipPath>
</defs>
</svg>
