<svg width="92" height="31" viewBox="0 0 92 31" fill="none" xmlns="http://www.w3.org/2000/svg">
<g style="mix-blend-mode:luminosity" opacity="0.8">
<path d="M22.6207 10.6523H11.8861V13.8375H19.4998C19.1225 18.296 15.4074 20.2097 11.8989 20.2097C10.7875 20.2146 9.68617 19.998 8.65932 19.5726C7.63248 19.1472 6.70067 18.5215 5.91829 17.732C5.13592 16.9425 4.51866 16.0051 4.10255 14.9744C3.68644 13.9438 3.47982 12.8406 3.49475 11.7292C3.49475 6.90718 7.22785 3.19466 11.9092 3.19466C15.5206 3.19466 17.6486 5.49677 17.6486 5.49677L19.8779 3.18694C19.8779 3.18694 17.0142 0 11.7926 0C5.14352 0 0 5.61166 0 11.6726C0 17.6118 4.83829 23.4035 11.9607 23.4035C18.2257 23.4035 22.8119 19.1114 22.8119 12.7649C22.8119 11.4257 22.6172 10.6523 22.6172 10.6523H22.6207Z" fill="#4885ED"/>
<path d="M31.4157 8.34461C27.0104 8.34461 23.8535 11.7888 23.8535 15.804C23.8535 19.88 26.9144 23.3876 31.4672 23.3876C35.5878 23.3876 38.9634 20.2384 38.9634 15.8914C38.9634 10.9185 35.0365 8.34375 31.4157 8.34375V8.34461ZM31.4586 11.2992C33.6244 11.2992 35.677 13.0509 35.677 15.8725C35.677 18.6334 33.633 20.4356 31.4483 20.4356C29.0476 20.4356 27.1614 18.5133 27.1614 15.8503C27.1614 13.2438 29.0305 11.2992 31.4655 11.2992H31.4586Z" fill="#DB3236"/>
<path d="M47.8611 8.3457C43.4558 8.3457 40.2988 11.7899 40.2988 15.8051C40.2988 19.8811 43.3597 23.3887 47.9125 23.3887C52.0332 23.3887 55.4087 20.2395 55.4087 15.8925C55.4087 10.9196 51.4818 8.3457 47.8611 8.3457ZM47.9039 11.3003C50.0697 11.3003 52.1223 13.052 52.1223 15.8736C52.1223 18.6345 50.0783 20.4367 47.8936 20.4367C45.4929 20.4367 43.6067 18.5144 43.6067 15.8513C43.6067 13.2449 45.4758 11.3003 47.9108 11.3003H47.9039Z" fill="#F4C20D"/>
<path d="M63.9905 8.35352C59.947 8.35352 56.7695 11.8946 56.7695 15.8694C56.7695 20.3965 60.4538 23.3991 63.9202 23.3991C66.0637 23.3991 67.204 22.5477 68.0357 21.5711V23.0544C68.0357 25.6498 66.4598 27.2042 64.0814 27.2042C61.7836 27.2042 60.6312 25.4954 60.2231 24.5266L57.332 25.7269C58.3574 27.8961 60.422 30.1571 64.1054 30.1571C68.1352 30.1571 71.1892 27.6252 71.1892 22.3145V8.80536H68.0477V10.0795C67.0789 9.03343 65.7516 8.35352 63.9922 8.35352H63.9905ZM64.282 11.303C66.2643 11.303 68.2998 12.9955 68.2998 15.8857C68.2998 18.824 66.2678 20.4428 64.2383 20.4428C62.0828 20.4428 60.0774 18.6937 60.0774 15.9132C60.0774 13.0255 62.1608 11.303 64.282 11.303Z" fill="#4885ED"/>
<path d="M85.2309 8.33594C81.4172 8.33594 78.2148 11.3711 78.2148 15.8467C78.2148 20.5847 81.7842 23.3944 85.5884 23.3944C88.7711 23.3944 90.7328 21.6539 91.8903 20.0934L89.2898 18.3632C88.6151 19.4092 87.4867 20.4338 85.6047 20.4338C83.4904 20.4338 82.5181 19.2763 81.9154 18.1531L92.0009 13.969L91.4865 12.743C90.5125 10.3422 88.2387 8.33594 85.2309 8.33594ZM85.3621 11.2288C86.7365 11.2288 87.7251 11.9593 88.1452 12.8356L81.4095 15.6504C81.118 13.4709 83.1843 11.2288 85.3535 11.2288H85.3621Z" fill="#DB3236"/>
<path d="M73.3984 22.949H76.7114V0.779297H73.3984V22.949Z" fill="#3CBA54"/>
</g>
</svg>
