<svg width="100" height="22" viewBox="0 0 100 22" fill="none" xmlns="http://www.w3.org/2000/svg">
<g clip-path="url(#clip0_128_751)">
<path d="M10.1018 0.958984H4.22164V1.449H6.1063V11.1738C6.1063 14.0762 5.27705 14.9055 3.46777 14.9055C2.7893 14.9808 2.1862 14.4908 2.11082 13.8124C2.11082 13.737 2.11082 13.6616 2.11082 13.5862C2.11082 12.5308 2.03543 11.89 1.0931 11.89C0.150773 11.89 0 12.87 0 13.1716C0 14.5285 0.603091 15.5462 3.27931 15.5462C6.48323 15.5462 8.17942 14.4908 8.17942 10.91V1.449H10.1395L10.1018 0.958984Z" fill="#503629"/>
<path d="M10.856 13.2461C10.5544 13.2461 10.2529 13.3592 10.0267 13.5853C9.80058 13.8115 9.6875 14.113 9.6875 14.4146C9.6875 14.7161 9.80058 15.0177 10.0267 15.2061C10.2529 15.4323 10.5544 15.5454 10.856 15.5454C11.1575 15.5454 11.4591 15.4323 11.6852 15.2061C11.9114 14.98 12.0245 14.7161 12.0245 14.4146C12.0245 13.7738 11.5345 13.2838 10.8937 13.2838H10.856" fill="#503629"/>
<path d="M23.9361 13.2467C23.333 13.2467 22.8053 13.7367 22.7676 14.3398V14.3775C22.7676 14.679 22.9184 14.9806 23.1445 15.169C23.3707 15.3952 23.6722 15.5083 23.9738 15.5083C24.2753 15.5083 24.5769 15.3952 24.803 15.169C25.0292 14.9806 25.1422 14.679 25.1422 14.3775C25.1422 14.0759 25.0292 13.7744 24.803 13.5482C24.5769 13.3221 24.313 13.209 24.0115 13.209" fill="#503629"/>
<path d="M19.8635 0.958984H14.0588V1.449H15.755V12.5308C15.7927 12.9831 15.755 13.4354 15.6042 13.8877C15.4534 14.1893 15.1896 14.4531 14.888 14.5285C14.5488 14.6416 14.1719 14.717 13.7949 14.717V15.1693H19.9389V14.717C19.5243 14.717 19.1474 14.6793 18.7704 14.5662C18.4312 14.4531 18.1673 14.227 18.0543 13.9254C17.9412 13.6239 17.8658 13.3223 17.9035 13.0208V9.1761H19.4489C23.8967 9.1761 25.1406 7.40452 25.1406 5.02985C25.1406 2.65518 24.349 0.958984 19.8635 0.958984ZM19.0343 8.6107H17.8658V1.52438H18.9212C22.3513 1.52438 23.1805 2.91903 23.1805 5.18062C23.1805 7.44221 21.8236 8.68609 19.1097 8.68609" fill="#503629"/>
<path d="M43.497 13.8495C43.3839 13.5479 43.3462 13.2087 43.3839 12.8694V1.44841H44.9293V0.996094H41.2731L36.8253 11.814C36.8253 11.8517 36.7876 11.8894 36.7499 11.8894C36.7122 11.8894 36.6745 11.8517 36.6368 11.814C36.6368 11.814 32.0382 1.10917 32.0006 0.996094H27.9297V1.44841H29.7013V13.4725C29.7013 13.7364 29.5882 13.9625 29.4751 14.1887C29.3243 14.4149 29.0982 14.5656 28.8343 14.641C28.5705 14.7164 28.2689 14.7164 28.0051 14.7164V15.1687H32.0382V14.7164C31.7744 14.7164 31.5482 14.6787 31.3221 14.6033C31.0205 14.5279 30.7944 14.3772 30.6059 14.151C30.4551 13.9249 30.3797 13.6987 30.3421 13.4348L30.3044 12.4171V2.91845H30.5305C30.5305 2.91845 35.7699 15.018 35.7699 15.1687H36.2599L41.1977 3.03153H41.3108V12.7941C41.3108 13.1333 41.2731 13.4725 41.1977 13.8118C41.0846 14.1133 40.8584 14.3395 40.5946 14.4526C40.2554 14.5656 39.9161 14.641 39.5769 14.641V15.0933H45.1932V14.641C44.8539 14.641 44.477 14.5656 44.1378 14.4526C43.8362 14.3018 43.6101 14.0379 43.497 13.7364" fill="#503629"/>
<path d="M51.0739 4.76562C48.0585 4.76562 46.1738 6.72567 46.1738 10.1934C46.1738 15.282 50.1316 15.5836 50.9986 15.5836C52.6947 15.5836 55.8987 14.5282 55.8987 10.0804C55.861 6.61259 53.8255 4.76562 51.0739 4.76562ZM51.0362 14.9428C48.7747 14.9428 48.4354 13.812 48.4354 10.2311C48.4354 7.44184 48.6239 5.33102 51.0362 5.33102C53.6371 5.33102 53.6748 7.51723 53.6748 10.005C53.6748 13.6612 53.034 14.9428 51.0362 14.9428Z" fill="#503629"/>
<path d="M63.7391 4.91602C61.9298 4.91602 61.4021 5.97142 60.8744 7.06453H60.7236C60.7236 7.06453 60.4598 5.51911 60.3844 5.0291H56.8789V5.5568H58.7636V12.6054C58.8013 13.0954 58.7259 13.5854 58.5374 14.0378C58.3489 14.377 57.8966 14.5655 57.2181 14.5655H56.9166V15.2063H62.7213V14.5655H62.4575C61.7036 14.5655 61.3644 14.4147 61.1759 14.0755C60.9875 13.6231 60.8744 13.0954 60.9498 12.6054V8.94919C60.9498 7.743 61.8921 6.31066 62.9852 6.31066C64.116 6.31066 64.116 8.08224 65.4353 7.36607C66.1137 6.95145 65.963 4.91602 63.7391 4.91602Z" fill="#503629"/>
<path d="M86.9206 14.1136C86.2798 14.1136 86.0913 13.7744 86.0536 13.209V7.63037C86.129 6.8765 85.8652 6.08495 85.3375 5.51955C84.8098 4.99184 83.7543 4.6903 82.2466 4.6903C81.1158 4.61491 80.0227 4.87876 79.0427 5.48186C78.4773 5.82109 78.1381 6.46188 78.1381 7.10266C78.1004 7.36651 78.2135 7.63037 78.4019 7.81883C78.5904 7.96961 78.8165 8.04499 79.0427 8.04499C79.6081 8.04499 79.9473 7.74345 80.0604 6.98958C80.0604 6.53726 80.2489 6.12264 80.5127 5.7834C80.8897 5.44416 81.4174 5.2557 81.9074 5.33108C82.4728 5.2557 83.0759 5.48186 83.4528 5.93417C83.7543 6.38649 83.8674 6.8765 83.8674 7.40421V9.17579C82.0205 9.32656 77.6104 9.70349 77.7988 13.0205C77.9496 14.4151 79.1558 15.4705 80.5504 15.4329C81.8697 15.3952 83.1136 14.7921 83.9428 13.7367C84.1313 14.679 84.9605 15.3198 85.9029 15.2821C87.2598 15.2821 88.0891 14.6036 88.1644 12.9828H87.8252C87.7498 13.7367 87.2975 14.1136 86.9206 14.1136ZM83.8674 13.0205C83.8674 13.0582 83.8674 13.0582 83.8674 13.0959V13.1336C83.2643 13.812 82.4351 14.2267 81.5305 14.3398C80.6635 14.3774 79.9096 13.699 79.8719 12.7943C79.8719 12.7189 79.8719 12.6436 79.8719 12.5682C79.8719 10.6835 82.4728 9.74119 83.9051 9.74119L83.8674 13.0205Z" fill="#503629"/>
<path d="M98.8318 14.0377C98.568 13.5854 98.4549 13.0577 98.4549 12.53V7.93145C98.4926 7.32836 98.3795 6.76296 98.1157 6.23526C97.8895 5.82063 97.5126 5.4437 97.098 5.21754C96.6079 4.99138 96.0802 4.8783 95.5525 4.8783C94.1579 4.84061 92.8763 5.59447 92.2355 6.83835H92.0094L91.6324 4.99138H88.5039V5.51909H90.087V12.53C90.087 12.9446 90.0493 13.3216 89.9739 13.7362C89.8986 14.0377 89.6724 14.3016 89.3709 14.377C89.107 14.4901 88.8055 14.5278 88.5039 14.5278V15.1685H93.5171V14.5278C93.1402 14.5655 92.7632 14.377 92.4994 14.1131C92.2732 13.6608 92.1601 13.1708 92.2355 12.6808V10.0046C92.1224 9.02455 92.2732 8.04453 92.6125 7.1022C93.0271 6.38603 93.8186 5.93371 94.6479 5.97141C95.2133 5.89602 95.7787 6.19756 96.0425 6.68758C96.3064 7.44144 96.4195 8.27069 96.3818 9.06225V12.3792C96.4195 12.7939 96.4195 13.2085 96.3818 13.6231C96.3441 13.9247 96.1933 14.1885 95.9295 14.3393C95.6656 14.4901 95.4018 14.5654 95.1379 14.5654V15.2062H100V14.5654C99.3972 14.4901 99.0203 14.3393 98.8318 14.0377Z" fill="#503629"/>
<path d="M76.1021 4.35218C75.7628 4.50295 75.5367 4.8045 75.499 5.14374C75.4236 5.55836 75.2728 5.78452 75.0467 5.85991C74.8205 5.93529 74.5566 5.8976 74.3305 5.82221C73.4259 5.03066 72.2197 4.65372 71.0512 4.72911C68.9781 4.57834 67.1311 6.12376 66.9803 8.19688C66.9803 8.34766 66.9803 8.49843 66.9803 8.6492C66.9803 10.8354 67.8096 11.8154 69.6188 12.2301C69.7319 12.2301 69.7319 12.3808 69.6188 12.3808C68.0734 12.6447 66.7165 13.097 66.7165 14.6047C66.7165 15.3209 67.1688 15.9617 67.8473 16.1878C68.8273 16.5271 69.845 16.6778 70.8627 16.6402C71.6543 16.6402 72.4835 16.6778 73.2751 16.7532C73.7274 16.7909 74.1797 16.9417 74.5943 17.2056C74.9336 17.5071 75.122 17.9217 75.0844 18.374C75.0844 19.0902 74.632 19.731 73.9913 19.9948C73.1243 20.4095 72.182 20.5979 71.2397 20.5602C70.3727 20.6356 69.4681 20.4472 68.7142 19.9948C68.2619 19.6556 68.0357 19.0902 68.1865 18.5625C68.3373 18.1479 68.1111 17.6579 67.6588 17.5071H67.5457C67.2065 17.4694 66.8672 17.6202 66.6788 17.884C66.528 18.1479 66.4149 18.4871 66.4526 18.8264C66.4903 19.8064 67.1688 20.5979 68.1488 20.7864C69.0534 21.088 69.9958 21.201 70.9381 21.201C72.0312 21.2387 73.1243 21.0503 74.142 20.5979C75.3482 20.0702 76.1775 18.9017 76.1775 17.5825C76.2152 16.9417 76.0267 16.3386 75.6874 15.8109C74.6697 14.4163 73.2374 14.6047 69.9958 14.454C68.4504 14.454 68.1488 14.1901 68.1488 13.7378C68.1488 13.0216 68.7142 12.7578 70.9381 12.4185C73.162 12.0793 75.2351 11.25 75.2351 8.57382C75.2351 7.93303 75.122 7.25455 74.8205 6.65146C75.2351 6.76454 75.6874 6.76454 76.1021 6.65146C76.479 6.53838 76.8182 6.27453 77.0067 5.93529C77.1952 5.67144 77.2706 5.29451 77.1952 4.99296C77.0067 4.42756 76.6298 4.20141 76.1021 4.35218ZM71.0889 11.7777C69.7696 11.7777 68.9781 11.2877 68.9781 8.61151C68.9781 6.72685 69.6188 5.3322 71.0889 5.3322C72.7474 5.3322 73.1997 6.61377 73.1997 8.57382C73.162 11.3631 72.2951 11.7777 71.0889 11.7777Z" fill="#503629"/>
</g>
<defs>
<clipPath id="clip0_128_751">
<rect width="100" height="20.2412" fill="white" transform="translate(0 0.958984)"/>
</clipPath>
</defs>
</svg>
