<svg width="100" height="22" viewBox="0 0 100 22" fill="none" xmlns="http://www.w3.org/2000/svg">
<g clip-path="url(#clip0_128_766)">
<path d="M35.2977 12.702L34.7017 14.3908H34.652C34.5527 14.01 34.3706 13.4305 34.0725 12.7351L30.8772 4.70534H27.748V17.5034H29.8176V9.606C29.8176 9.10931 29.8176 8.5464 29.801 7.85103C29.7845 7.50335 29.7514 7.23845 29.7348 7.03977H29.7845C29.8838 7.53646 29.9997 7.9007 30.0825 8.13249L33.9235 17.4702H35.3805L39.1884 8.04971C39.2712 7.83448 39.354 7.40401 39.4368 7.03977H39.4865C39.4368 7.98348 39.4037 8.82785 39.3871 9.3411V17.4537H41.5891V4.67222H38.5759L35.2977 12.702ZM43.6752 8.2815H45.8275V17.4537H43.6752V8.2815ZM44.7679 4.40732C44.4037 4.40732 44.1057 4.53977 43.8573 4.77156C43.609 5.00335 43.4765 5.30136 43.4765 5.6656C43.4765 6.01328 43.609 6.3113 43.8573 6.54308C44.1057 6.77487 44.4037 6.89077 44.7679 6.89077C45.1322 6.89077 45.4467 6.75832 45.6785 6.54308C45.9269 6.3113 46.0593 6.01328 46.0593 5.6656C46.0593 5.31792 45.9269 5.01991 45.6785 4.77156C45.4633 4.53977 45.1487 4.40732 44.7679 4.40732ZM53.46 8.19871C53.0626 8.11593 52.6487 8.06626 52.2514 8.06626C51.2745 8.06626 50.3805 8.2815 49.6355 8.71196C48.8904 9.14242 48.2944 9.73845 47.9136 10.4835C47.5163 11.2451 47.3176 12.1226 47.3176 13.1325C47.3176 14.01 47.5163 14.7881 47.8971 15.5C48.2778 16.1954 48.8076 16.7583 49.5196 17.1391C50.1984 17.5199 50.9931 17.7186 51.8871 17.7186C52.9136 17.7186 53.7911 17.5034 54.4865 17.106L54.503 17.0894V15.1027L54.4202 15.1689C54.1057 15.4007 53.7414 15.5994 53.3772 15.7153C52.9964 15.8477 52.6487 15.9139 52.3507 15.9139C51.4898 15.9139 50.811 15.6656 50.3308 15.1192C49.8341 14.5894 49.5858 13.861 49.5858 12.9504C49.5858 12.0067 49.8341 11.2616 50.3474 10.7153C50.8606 10.1689 51.5394 9.88746 52.3672 9.88746C53.0626 9.88746 53.7745 10.1192 54.4202 10.5828L54.503 10.649V8.5464L54.4865 8.52984C54.205 8.41395 53.8904 8.2815 53.46 8.19871ZM60.5626 8.13249C60.0328 8.13249 59.5361 8.29805 59.1057 8.64573C58.7414 8.94375 58.4931 9.37421 58.2778 9.88746H58.2613V8.2815H56.109V17.4537H58.2613V12.7683C58.2613 11.9735 58.4269 11.3113 58.7911 10.8312C59.1553 10.3345 59.6189 10.0861 60.1818 10.0861C60.3805 10.0861 60.5792 10.1358 60.8275 10.1689C61.0593 10.2351 61.2249 10.3014 61.3408 10.3841L61.4235 10.4504V8.29805L61.3739 8.2815C61.2249 8.18216 60.9269 8.13249 60.5626 8.13249ZM66.4235 8.08282C64.9169 8.08282 63.7083 8.52984 62.8639 9.40732C62.003 10.2848 61.5891 11.4934 61.5891 13.0166C61.5891 14.4404 62.0196 15.5994 62.8474 16.4437C63.6752 17.2716 64.801 17.702 66.2083 17.702C67.6818 17.702 68.8573 17.255 69.7017 16.361C70.5626 15.4669 70.9765 14.2749 70.9765 12.8014C70.9765 11.3444 70.5792 10.1855 69.7679 9.3411C68.9898 8.49673 67.8474 8.08282 66.4235 8.08282ZM68.1454 15.1358C67.748 15.649 67.1189 15.8974 66.3408 15.8974C65.5626 15.8974 64.9335 15.649 64.4865 15.1027C64.0394 14.5894 63.8242 13.8444 63.8242 12.9007C63.8242 11.9239 64.056 11.1788 64.4865 10.649C64.9335 10.1192 65.5461 9.85434 66.3242 9.85434C67.0858 9.85434 67.6818 10.1027 68.1123 10.6159C68.5427 11.1292 68.7745 11.8742 68.7745 12.851C68.7414 13.8444 68.5593 14.6226 68.1454 15.1358ZM75.7778 12.0894C75.099 11.808 74.6686 11.5928 74.4699 11.4106C74.3043 11.2451 74.2216 11.0133 74.2216 10.7153C74.2216 10.4669 74.3209 10.2186 74.5692 10.053C74.8176 9.88746 75.099 9.80467 75.5129 9.80467C75.8772 9.80467 76.258 9.8709 76.6222 9.97024C76.9865 10.0696 77.3176 10.2186 77.5825 10.4173L77.6653 10.4835V8.46361L77.6156 8.44706C77.3672 8.34772 77.0361 8.24838 76.6388 8.1656C76.2414 8.09938 75.8772 8.06626 75.5792 8.06626C74.5527 8.06626 73.7083 8.31461 73.0461 8.86097C72.3838 9.37421 72.0692 10.0696 72.0692 10.8808C72.0692 11.3113 72.1355 11.6921 72.2845 12.0067C72.4335 12.3212 72.6487 12.6192 72.9467 12.8676C73.2447 13.0994 73.6752 13.3643 74.2712 13.6126C74.7679 13.8279 75.1487 13.9934 75.3805 14.1259C75.6123 14.2583 75.7613 14.4073 75.8772 14.5232C75.96 14.6557 76.0096 14.8212 76.0096 15.0365C76.0096 15.649 75.5461 15.9471 74.6024 15.9471C74.2381 15.9471 73.8573 15.8808 73.4103 15.7318C72.9633 15.5828 72.5494 15.3676 72.2017 15.1192L72.1189 15.053V17.1557L72.1686 17.1722C72.4831 17.3212 72.8639 17.4206 73.3275 17.5365C73.7911 17.6192 74.205 17.6855 74.5692 17.6855C75.6785 17.6855 76.5891 17.4371 77.2348 16.8908C77.8971 16.361 78.2447 15.6822 78.2447 14.8047C78.2447 14.1921 78.0792 13.6457 77.7149 13.2318C77.2348 12.8345 76.6388 12.4206 75.7778 12.0894ZM83.9235 8.08282C82.4169 8.08282 81.2083 8.52984 80.3639 9.40732C79.5196 10.2848 79.0891 11.4934 79.0891 13.0166C79.0891 14.4404 79.5196 15.5994 80.3474 16.4437C81.1752 17.2716 82.301 17.702 83.7083 17.702C85.1818 17.702 86.3573 17.255 87.2017 16.361C88.0626 15.4669 88.4765 14.2749 88.4765 12.8014C88.4765 11.3444 88.0792 10.1855 87.2679 9.3411C86.4898 8.49673 85.3474 8.08282 83.9235 8.08282ZM85.6288 15.1358C85.2315 15.649 84.6023 15.8974 83.8242 15.8974C83.0295 15.8974 82.4169 15.649 81.9699 15.1027C81.5229 14.5894 81.3076 13.8444 81.3076 12.9007C81.3076 11.9239 81.5394 11.1788 81.9699 10.649C82.4169 10.1192 83.0295 9.85434 83.8077 9.85434C84.5527 9.85434 85.1653 10.1027 85.5957 10.6159C86.0262 11.1292 86.258 11.8742 86.258 12.851C86.258 13.8444 86.0427 14.6226 85.6288 15.1358ZM99.9831 10.053V8.2815H97.8143V5.56626L97.748 5.58282L95.6951 6.1954L95.6454 6.21196V8.2815H92.4004V7.12256C92.4004 6.59275 92.5328 6.17885 92.7646 5.91395C92.9964 5.64905 93.3441 5.51659 93.7745 5.51659C94.0726 5.51659 94.3871 5.58282 94.7348 5.73183L94.8176 5.7815V3.91063L94.7679 3.89408C94.4699 3.79474 94.0725 3.72852 93.5593 3.72852C92.9136 3.72852 92.3507 3.87752 91.8375 4.12587C91.3242 4.40732 90.9434 4.78812 90.6619 5.30136C90.3805 5.79805 90.2315 6.36097 90.2315 7.00666V8.2815H88.7249V10.0365H90.2315V17.4537H92.4004V10.053H95.6454V14.7716C95.6454 16.7086 96.556 17.6855 98.3772 17.6855C98.6752 17.6855 98.9898 17.6358 99.2878 17.5861C99.6024 17.5199 99.8341 17.4371 99.9666 17.3709L99.9831 17.3543V15.5828L99.9004 15.649C99.7679 15.7318 99.652 15.7981 99.4533 15.8477C99.2878 15.8974 99.1388 15.9139 99.0229 15.9139C98.5924 15.9139 98.2944 15.8146 98.0792 15.5663C97.8805 15.3345 97.7812 14.9537 97.7812 14.3908V10.053H99.9831Z" fill="#737373"/>
<path d="M0 0.400391H10.149V10.5494H0V0.400391Z" fill="#F25022"/>
<path d="M11.209 0.400391H21.358V10.5494H11.209V0.400391Z" fill="#7FBA00"/>
<path d="M0 11.6094H10.149V21.7584H0V11.6094Z" fill="#00A4EF"/>
<path d="M11.209 11.6094H21.358V21.7584H11.209V11.6094Z" fill="#FFB900"/>
</g>
<defs>
<clipPath id="clip0_128_766">
<rect width="100" height="21.3576" fill="white" transform="translate(0 0.400391)"/>
</clipPath>
</defs>
</svg>
