<svg width="100" height="14" viewBox="0 0 100 14" fill="none" xmlns="http://www.w3.org/2000/svg">
<g clip-path="url(#clip0_128_749)">
<path d="M43.2626 9.02849H49.8484L46.3605 3.39591L39.948 13.5562H37.0451L44.844 1.35951C45.429 0.514627 46.5988 0.319654 47.422 0.904576C47.5953 1.03456 47.747 1.16454 47.877 1.33785L55.6976 13.5562H52.7946L51.4298 11.2815H44.7574L43.2626 9.02849ZM73.5485 11.3032V0.709602H71.0789V12.3431C71.0789 12.668 71.2088 12.993 71.4471 13.2096C71.6854 13.4479 72.0104 13.5779 72.357 13.5779H83.6005L85.0737 11.3032H73.5485ZM32.6257 9.39678C35.0303 9.39678 36.9801 7.44704 36.9801 5.04236C36.9801 2.63768 35.0303 0.687938 32.6257 0.687938H21.8154V13.5562H24.2634V2.9843H32.4523C33.6005 2.9843 34.5321 3.91584 34.5321 5.06402C34.5321 6.2122 33.6005 7.14374 32.4523 7.14374H25.4766L32.864 13.5562H36.4601L31.4991 9.39678H32.6257ZM6.60746 13.5562H14.0815C17.6343 13.4696 20.429 10.5016 20.3423 6.97043C20.2556 3.54756 17.4827 0.796257 14.0815 0.709602H6.60746C3.0546 0.622946 0.0866639 3.41757 8.78161e-06 6.97043C-0.0866463 10.5233 2.70798 13.4696 6.26084 13.5562C6.36916 13.5779 6.47748 13.5779 6.60746 13.5562ZM13.9082 11.3032H6.75911C4.46275 11.2382 2.66465 9.31012 2.72964 7.01376C2.79464 4.82572 4.57107 3.04929 6.75911 2.9843H13.9082C16.2045 2.91931 18.1326 4.7174 18.1976 7.01376C18.2626 9.31012 16.4645 11.2382 14.1681 11.3032C14.0815 11.3032 13.9948 11.3032 13.9082 11.3032ZM60.8536 13.5562H68.4792L69.9307 11.3032H61.0269C58.7305 11.3682 56.8024 9.57009 56.7374 7.27373C56.6725 4.97737 58.4705 3.04929 60.7669 2.9843C60.8536 2.9843 60.9402 2.9843 61.0269 2.9843H68.2842L69.7574 0.709602H60.8752C57.3224 0.622946 54.3761 3.41757 54.2894 6.97043C54.2028 10.5233 56.9974 13.4696 60.5503 13.5562C60.6369 13.5779 60.7452 13.5779 60.8536 13.5562ZM91.0962 11.3032C89.2331 11.3032 87.5867 10.0684 87.0884 8.27026H97.6603L99.1118 5.99556H87.0884C87.5867 4.19747 89.2331 2.96263 91.0962 2.96263H98.3536L99.805 0.687938H90.9229C87.37 0.796257 84.5754 3.74253 84.6621 7.29539C84.7487 10.7183 87.5 13.4696 90.9229 13.5562H98.5485L100 11.3032H91.0962Z" fill="#C74634"/>
</g>
<defs>
<clipPath id="clip0_128_749">
<rect width="100" height="12.9983" fill="white" transform="translate(0 0.580078)"/>
</clipPath>
</defs>
</svg>
